<mxfile host="app.diagrams.net" agent="Mozilla/5.0 (Windows NT 10.0; Win64; x64) AppleWebKit/537.36 (KHTML, like Gecko) Chrome/128.0.0.0 Safari/537.36 OPR/114.0.0.0" version="24.8.4">
  <diagram name="Sayfa -1" id="O-nwXZqN2oREGtWUTXD0">
    <mxGraphModel dx="1150" dy="615" grid="1" gridSize="10" guides="1" tooltips="1" connect="1" arrows="1" fold="1" page="1" pageScale="1" pageWidth="827" pageHeight="1169" math="0" shadow="0">
      <root>
        <mxCell id="0" />
        <mxCell id="1" parent="0" />
        <mxCell id="8Q_skArq6692FFohvoNF-1" value="&lt;u&gt;:Student&lt;/u&gt;" style="shape=umlActor;verticalLabelPosition=bottom;verticalAlign=top;html=1;outlineConnect=0;" vertex="1" parent="1">
          <mxGeometry x="111" y="50" width="30" height="60" as="geometry" />
        </mxCell>
        <mxCell id="8Q_skArq6692FFohvoNF-2" value="&lt;u&gt;:System&lt;/u&gt;" style="whiteSpace=wrap;html=1;align=center;" vertex="1" parent="1">
          <mxGeometry x="311" y="110" width="100" height="30" as="geometry" />
        </mxCell>
        <mxCell id="8Q_skArq6692FFohvoNF-3" value="" style="edgeStyle=none;orthogonalLoop=1;jettySize=auto;html=1;rounded=0;dashed=1;" edge="1" parent="1">
          <mxGeometry width="100" relative="1" as="geometry">
            <mxPoint x="361" y="240" as="sourcePoint" />
            <mxPoint x="130" y="240" as="targetPoint" />
            <Array as="points" />
          </mxGeometry>
        </mxCell>
        <mxCell id="8Q_skArq6692FFohvoNF-4" value="IsAuthorized()" style="text;html=1;align=center;verticalAlign=middle;resizable=0;points=[];autosize=1;strokeColor=none;fillColor=none;" vertex="1" parent="1">
          <mxGeometry x="196" y="220" width="100" height="30" as="geometry" />
        </mxCell>
        <mxCell id="8Q_skArq6692FFohvoNF-5" value="" style="endArrow=classic;html=1;rounded=0;" edge="1" parent="1">
          <mxGeometry width="50" height="50" relative="1" as="geometry">
            <mxPoint x="137" y="210" as="sourcePoint" />
            <mxPoint x="361" y="210" as="targetPoint" />
          </mxGeometry>
        </mxCell>
        <mxCell id="8Q_skArq6692FFohvoNF-6" value="login()" style="text;html=1;align=center;verticalAlign=middle;resizable=0;points=[];autosize=1;strokeColor=none;fillColor=none;" vertex="1" parent="1">
          <mxGeometry x="211" y="188" width="60" height="30" as="geometry" />
        </mxCell>
        <mxCell id="8Q_skArq6692FFohvoNF-9" value="" style="endArrow=none;html=1;rounded=0;dashed=1;" edge="1" parent="1" source="8Q_skArq6692FFohvoNF-32">
          <mxGeometry relative="1" as="geometry">
            <mxPoint x="361" y="150" as="sourcePoint" />
            <mxPoint x="360" y="430" as="targetPoint" />
          </mxGeometry>
        </mxCell>
        <mxCell id="8Q_skArq6692FFohvoNF-10" value="" style="endArrow=none;html=1;rounded=0;dashed=1;" edge="1" parent="1" target="8Q_skArq6692FFohvoNF-11">
          <mxGeometry relative="1" as="geometry">
            <mxPoint x="361" y="150" as="sourcePoint" />
            <mxPoint x="361" y="292" as="targetPoint" />
          </mxGeometry>
        </mxCell>
        <mxCell id="8Q_skArq6692FFohvoNF-11" value="" style="rounded=0;whiteSpace=wrap;html=1;" vertex="1" parent="1">
          <mxGeometry x="356" y="208" width="10" height="42" as="geometry" />
        </mxCell>
        <mxCell id="8Q_skArq6692FFohvoNF-13" value="[isAuthorized != 0]" style="text;html=1;align=center;verticalAlign=middle;resizable=0;points=[];autosize=1;strokeColor=none;fillColor=none;" vertex="1" parent="1">
          <mxGeometry x="131" y="160" width="120" height="30" as="geometry" />
        </mxCell>
        <mxCell id="8Q_skArq6692FFohvoNF-15" value="" style="endArrow=classic;html=1;rounded=0;" edge="1" parent="1">
          <mxGeometry width="50" height="50" relative="1" as="geometry">
            <mxPoint x="130" y="290" as="sourcePoint" />
            <mxPoint x="360" y="290" as="targetPoint" />
          </mxGeometry>
        </mxCell>
        <mxCell id="8Q_skArq6692FFohvoNF-16" value="" style="endArrow=classic;html=1;rounded=0;dashed=1;" edge="1" parent="1">
          <mxGeometry width="50" height="50" relative="1" as="geometry">
            <mxPoint x="361" y="320" as="sourcePoint" />
            <mxPoint x="131" y="320" as="targetPoint" />
          </mxGeometry>
        </mxCell>
        <mxCell id="8Q_skArq6692FFohvoNF-17" value="takeTranscsipt()" style="text;html=1;align=center;verticalAlign=middle;resizable=0;points=[];autosize=1;strokeColor=none;fillColor=none;" vertex="1" parent="1">
          <mxGeometry x="185" y="268" width="110" height="30" as="geometry" />
        </mxCell>
        <mxCell id="8Q_skArq6692FFohvoNF-18" value="transcript" style="text;html=1;align=center;verticalAlign=middle;resizable=0;points=[];autosize=1;strokeColor=none;fillColor=none;" vertex="1" parent="1">
          <mxGeometry x="205" y="298" width="70" height="30" as="geometry" />
        </mxCell>
        <mxCell id="8Q_skArq6692FFohvoNF-21" value="" style="endArrow=none;html=1;rounded=0;dashed=1;" edge="1" parent="1" source="8Q_skArq6692FFohvoNF-11" target="8Q_skArq6692FFohvoNF-20">
          <mxGeometry relative="1" as="geometry">
            <mxPoint x="361" y="250" as="sourcePoint" />
            <mxPoint x="360" y="360" as="targetPoint" />
          </mxGeometry>
        </mxCell>
        <mxCell id="8Q_skArq6692FFohvoNF-20" value="" style="rounded=0;whiteSpace=wrap;html=1;" vertex="1" parent="1">
          <mxGeometry x="356" y="286" width="10" height="42" as="geometry" />
        </mxCell>
        <mxCell id="8Q_skArq6692FFohvoNF-26" value="" style="endArrow=none;html=1;rounded=0;dashed=1;" edge="1" parent="1" source="8Q_skArq6692FFohvoNF-22">
          <mxGeometry relative="1" as="geometry">
            <mxPoint x="126" y="150" as="sourcePoint" />
            <mxPoint x="130" y="430" as="targetPoint" />
          </mxGeometry>
        </mxCell>
        <mxCell id="8Q_skArq6692FFohvoNF-27" value="" style="endArrow=none;html=1;rounded=0;dashed=1;" edge="1" parent="1" target="8Q_skArq6692FFohvoNF-22">
          <mxGeometry relative="1" as="geometry">
            <mxPoint x="126" y="150" as="sourcePoint" />
            <mxPoint x="125.5" y="520" as="targetPoint" />
          </mxGeometry>
        </mxCell>
        <mxCell id="8Q_skArq6692FFohvoNF-22" value="" style="rounded=0;whiteSpace=wrap;html=1;fillColor=none;" vertex="1" parent="1">
          <mxGeometry x="121" y="170" width="10" height="220" as="geometry" />
        </mxCell>
        <mxCell id="8Q_skArq6692FFohvoNF-28" value="Loop" style="shape=umlFrame;whiteSpace=wrap;html=1;pointerEvents=0;" vertex="1" parent="1">
          <mxGeometry x="50" y="160" width="330" height="100" as="geometry" />
        </mxCell>
        <mxCell id="8Q_skArq6692FFohvoNF-30" value="" style="endArrow=classic;html=1;rounded=0;" edge="1" parent="1">
          <mxGeometry width="50" height="50" relative="1" as="geometry">
            <mxPoint x="131" y="370" as="sourcePoint" />
            <mxPoint x="361" y="370" as="targetPoint" />
          </mxGeometry>
        </mxCell>
        <mxCell id="8Q_skArq6692FFohvoNF-31" value="displayTranscript()" style="text;html=1;align=center;verticalAlign=middle;resizable=0;points=[];autosize=1;strokeColor=none;fillColor=none;" vertex="1" parent="1">
          <mxGeometry x="180" y="348" width="120" height="30" as="geometry" />
        </mxCell>
        <mxCell id="8Q_skArq6692FFohvoNF-33" value="" style="endArrow=none;html=1;rounded=0;dashed=1;" edge="1" parent="1" source="8Q_skArq6692FFohvoNF-20" target="8Q_skArq6692FFohvoNF-32">
          <mxGeometry relative="1" as="geometry">
            <mxPoint x="361" y="328" as="sourcePoint" />
            <mxPoint x="360" y="520" as="targetPoint" />
          </mxGeometry>
        </mxCell>
        <mxCell id="8Q_skArq6692FFohvoNF-32" value="" style="rounded=0;whiteSpace=wrap;html=1;" vertex="1" parent="1">
          <mxGeometry x="356" y="360" width="10" height="20" as="geometry" />
        </mxCell>
        <mxCell id="8Q_skArq6692FFohvoNF-34" value="" style="endArrow=none;dashed=1;html=1;strokeWidth=1;rounded=0;exitX=1;exitY=0.5;exitDx=0;exitDy=0;" edge="1" parent="1" source="8Q_skArq6692FFohvoNF-32">
          <mxGeometry width="50" height="50" relative="1" as="geometry">
            <mxPoint x="411" y="380" as="sourcePoint" />
            <mxPoint x="440" y="370" as="targetPoint" />
            <Array as="points" />
          </mxGeometry>
        </mxCell>
        <mxCell id="8Q_skArq6692FFohvoNF-35" value="only displays&lt;div&gt;transcript.&lt;/div&gt;&lt;div&gt;Nothing retunred&lt;/div&gt;" style="shape=note;size=20;whiteSpace=wrap;html=1;" vertex="1" parent="1">
          <mxGeometry x="440" y="330" width="110" height="70" as="geometry" />
        </mxCell>
      </root>
    </mxGraphModel>
  </diagram>
</mxfile>
